<svg xmlns="http://www.w3.org/2000/svg" width="1280" height="640" viewBox="0 0 1280 640" role="img" aria-labelledby="title desc">
  <title id="title">Jeff Kazzee profile hero</title>
  <desc id="desc">Software engineer for agentic operations, local-first tools, typed knowledge systems, and practical AI workflows.</desc>
  <defs>
    <linearGradient id="bg" x1="0" y1="0" x2="1" y2="1">
      <stop offset="0" stop-color="#0b1117"/>
      <stop offset="0.52" stop-color="#111827"/>
      <stop offset="1" stop-color="#1f2933"/>
    </linearGradient>
    <linearGradient id="gold" x1="0" y1="0" x2="1" y2="1">
      <stop offset="0" stop-color="#f8d76b"/>
      <stop offset="1" stop-color="#f97316"/>
    </linearGradient>
    <linearGradient id="blue" x1="0" y1="0" x2="1" y2="1">
      <stop offset="0" stop-color="#3b82f6"/>
      <stop offset="1" stop-color="#14b8a6"/>
    </linearGradient>
    <pattern id="grid" width="42" height="42" patternUnits="userSpaceOnUse">
      <path d="M 42 0 L 0 0 0 42" fill="none" stroke="#ffffff" stroke-opacity="0.06" stroke-width="1"/>
    </pattern>
    <filter id="softShadow" x="-20%" y="-20%" width="140%" height="140%">
      <feDropShadow dx="0" dy="24" stdDeviation="28" flood-color="#000000" flood-opacity="0.35"/>
    </filter>
  </defs>
  <rect width="1280" height="640" rx="34" fill="url(#bg)"/>
  <rect width="1280" height="640" rx="34" fill="url(#grid)"/>
  <path d="M 0 430 L 390 430 L 520 640 L 0 640 Z" fill="#0f766e" opacity="0.9"/>
  <path d="M 180 640 L 560 210 L 710 640 Z" fill="#2563eb" opacity="0.9"/>
  <path d="M 498 640 L 820 264 L 1035 640 Z" fill="#facc15" opacity="0.96"/>
  <path d="M 805 640 L 1060 380 L 1280 640 Z" fill="#f97316" opacity="0.95"/>
  <circle cx="1046" cy="180" r="142" fill="#111827" stroke="#ffffff" stroke-opacity="0.12" stroke-width="2" filter="url(#softShadow)"/>
  <circle cx="1046" cy="180" r="105" fill="none" stroke="url(#blue)" stroke-width="18"/>
  <path d="M 997 231 L 1046 85 L 1095 231" fill="none" stroke="url(#gold)" stroke-width="20" stroke-linecap="round" stroke-linejoin="round"/>
  <path d="M 967 180 H 1125" stroke="#f9fafb" stroke-width="18" stroke-linecap="round"/>
  <text x="86" y="126" fill="#93c5fd" font-family="Segoe UI, Arial, sans-serif" font-size="22" font-weight="700" letter-spacing="3">JEFF KAZZEE</text>
  <text x="84" y="214" fill="#f9fafb" font-family="Segoe UI, Arial, sans-serif" font-size="70" font-weight="800">Software engineer</text>
  <text x="88" y="288" fill="#e5e7eb" font-family="Segoe UI, Arial, sans-serif" font-size="44" font-weight="650">for agentic operations</text>
  <text x="88" y="362" fill="#cbd5e1" font-family="Segoe UI, Arial, sans-serif" font-size="28">Local-first tools / typed knowledge systems / practical AI workflows</text>
  <g transform="translate(88 448)">
    <rect width="205" height="46" rx="23" fill="#f9fafb" fill-opacity="0.1" stroke="#ffffff" stroke-opacity="0.14"/>
    <text x="26" y="31" fill="#f9fafb" font-family="Segoe UI, Arial, sans-serif" font-size="18" font-weight="700">Build</text>
    <circle cx="86" cy="23" r="4" fill="#14b8a6"/>
    <text x="104" y="31" fill="#f9fafb" font-family="Segoe UI, Arial, sans-serif" font-size="18" font-weight="700">Verify</text>
  </g>
  <g transform="translate(318 448)">
    <rect width="250" height="46" rx="23" fill="#f9fafb" fill-opacity="0.1" stroke="#ffffff" stroke-opacity="0.14"/>
    <text x="25" y="31" fill="#f9fafb" font-family="Segoe UI, Arial, sans-serif" font-size="18" font-weight="700">Document</text>
    <circle cx="125" cy="23" r="4" fill="#facc15"/>
    <text x="143" y="31" fill="#f9fafb" font-family="Segoe UI, Arial, sans-serif" font-size="18" font-weight="700">Leave proof</text>
  </g>
</svg>
